# xmcd
# Track frame offsets:
# 150
# 16925
# 31896
# 49255
# 60199
# 73222
# 88633
# 102537
# 117828
# 133363
# 147966
# 162390
# 177632
# 194892
#
# Disc length: 2819 seconds
# Revision: 0
# Processed by: cddbd v1.4PL0 Copyright (c) Steve Scherf et al.
# Submitted via: VisiTrax 2.9.5.180 - For more info visit www.synapsa.com
#
DISCID=d40b010e
DTITLE=Billy Yates - Country
DYEAR=1900
DGENRE=
TTITLE0=Down at the station
TTITLE1=What we don't have
TTITLE2=Just can't trust myself with you
TTITLE3=Me, Marie
TTITLE4=Daddy's Radio
TTITLE5=A day I never will forget
TTITLE6=Smokin grass
TTITLE7=Dreaming out loud
TTITLE8=Hold me
TTITLE9=Country
TTITLE10=Wrong side of the bed
TTITLE11=Pray
TTITLE12=That's just me
TTITLE13=Let's go
EXTD=
EXTT0=
EXTT1=
EXTT2=
EXTT3=
EXTT4=
EXTT5=
EXTT6=
EXTT7=
EXTT8=
EXTT9=
EXTT10=
EXTT11=
EXTT12=
EXTT13=
PLAYORDER=
